name C:\Users\u0101727\Documents\MyRepositories\upper-imu-dc\OpenSim\subject0\MA\MA_Splines\angle_in_n6_dof6_0.mot
datacolumns 7
datarows 74
range 25.01000000 25.74000000
endheader 
time	clav_prot	clav_elev	scapula_abduction	scapula_elevation	scapula_upward_rot	scapula_winging	
         25.01000000	        -23.33033544	          2.15399008	         -8.18913718	          7.08700750	         23.68359952	        -16.84364364	
         25.02000000	        -16.90593547	          2.15399008	         -8.18913718	          7.08700750	         23.68359952	        -16.84364364	
         25.03000000	        -49.02793530	          7.05722688	         -8.18913718	          7.08700750	         23.68359952	        -16.84364364	
         25.04000000	        -42.60353533	          7.05722688	         -8.18913718	          7.08700750	         23.68359952	        -16.84364364	
         25.05000000	        -36.17913537	          7.05722688	         -8.18913718	          7.08700750	         23.68359952	        -16.84364364	
         25.06000000	        -29.75473540	          7.05722688	         -8.18913718	          7.08700750	         23.68359952	        -16.84364364	
         25.07000000	        -23.33033544	          7.05722688	         -8.18913718	          7.08700750	         23.68359952	        -16.84364364	
         25.08000000	        -16.90593547	          7.05722688	         -8.18913718	          7.08700750	         23.68359952	        -16.84364364	
         25.09000000	        -49.02793530	         11.96046367	         -8.18913718	          7.08700750	         23.68359952	        -16.84364364	
         25.10000000	        -42.60353533	         11.96046367	         -8.18913718	          7.08700750	         23.68359952	        -16.84364364	
         25.11000000	        -36.17913537	         11.96046367	         -8.18913718	          7.08700750	         23.68359952	        -16.84364364	
         25.12000000	        -29.75473540	         11.96046367	         -8.18913718	          7.08700750	         23.68359952	        -16.84364364	
         25.13000000	        -23.33033544	         11.96046367	         -8.18913718	          7.08700750	         23.68359952	        -16.84364364	
         25.14000000	        -16.90593547	         11.96046367	         -8.18913718	          7.08700750	         23.68359952	        -16.84364364	
         25.15000000	        -49.02793530	         16.86370047	         -8.18913718	          7.08700750	         23.68359952	        -16.84364364	
         25.16000000	        -42.60353533	         16.86370047	         -8.18913718	          7.08700750	         23.68359952	        -16.84364364	
         25.17000000	        -36.17913537	         16.86370047	         -8.18913718	          7.08700750	         23.68359952	        -16.84364364	
         25.18000000	        -29.75473540	         16.86370047	         -8.18913718	          7.08700750	         23.68359952	        -16.84364364	
         25.19000000	        -23.33033544	         16.86370047	         -8.18913718	          7.08700750	         23.68359952	        -16.84364364	
         25.20000000	        -16.90593547	         16.86370047	         -8.18913718	          7.08700750	         23.68359952	        -16.84364364	
         25.21000000	        -49.02793530	         -7.65248351	          1.54938583	          7.08700750	         23.68359952	        -16.84364364	
         25.22000000	        -42.60353533	         -7.65248351	          1.54938583	          7.08700750	         23.68359952	        -16.84364364	
         25.23000000	        -36.17913537	         -7.65248351	          1.54938583	          7.08700750	         23.68359952	        -16.84364364	
         25.24000000	        -29.75473540	         -7.65248351	          1.54938583	          7.08700750	         23.68359952	        -16.84364364	
         25.25000000	        -23.33033544	         -7.65248351	          1.54938583	          7.08700750	         23.68359952	        -16.84364364	
         25.26000000	        -16.90593547	         -7.65248351	          1.54938583	          7.08700750	         23.68359952	        -16.84364364	
         25.27000000	        -49.02793530	         -2.74924671	          1.54938583	          7.08700750	         23.68359952	        -16.84364364	
         25.28000000	        -42.60353533	         -2.74924671	          1.54938583	          7.08700750	         23.68359952	        -16.84364364	
         25.29000000	        -36.17913537	         -2.74924671	          1.54938583	          7.08700750	         23.68359952	        -16.84364364	
         25.30000000	        -29.75473540	         -2.74924671	          1.54938583	          7.08700750	         23.68359952	        -16.84364364	
         25.31000000	        -23.33033544	         -2.74924671	          1.54938583	          7.08700750	         23.68359952	        -16.84364364	
         25.32000000	        -16.90593547	         -2.74924671	          1.54938583	          7.08700750	         23.68359952	        -16.84364364	
         25.33000000	        -49.02793530	          2.15399008	          1.54938583	          7.08700750	         23.68359952	        -16.84364364	
         25.34000000	        -42.60353533	          2.15399008	          1.54938583	          7.08700750	         23.68359952	        -16.84364364	
         25.35000000	        -36.17913537	          2.15399008	          1.54938583	          7.08700750	         23.68359952	        -16.84364364	
         25.36000000	        -29.75473540	          2.15399008	          1.54938583	          7.08700750	         23.68359952	        -16.84364364	
         25.37000000	        -23.33033544	          2.15399008	          1.54938583	          7.08700750	         23.68359952	        -16.84364364	
         25.38000000	        -16.90593547	          2.15399008	          1.54938583	          7.08700750	         23.68359952	        -16.84364364	
         25.39000000	        -49.02793530	          7.05722688	          1.54938583	          7.08700750	         23.68359952	        -16.84364364	
         25.40000000	        -42.60353533	          7.05722688	          1.54938583	          7.08700750	         23.68359952	        -16.84364364	
         25.41000000	        -36.17913537	          7.05722688	          1.54938583	          7.08700750	         23.68359952	        -16.84364364	
         25.42000000	        -29.75473540	          7.05722688	          1.54938583	          7.08700750	         23.68359952	        -16.84364364	
         25.43000000	        -23.33033544	          7.05722688	          1.54938583	          7.08700750	         23.68359952	        -16.84364364	
         25.44000000	        -16.90593547	          7.05722688	          1.54938583	          7.08700750	         23.68359952	        -16.84364364	
         25.45000000	        -49.02793530	         11.96046367	          1.54938583	          7.08700750	         23.68359952	        -16.84364364	
         25.46000000	        -42.60353533	         11.96046367	          1.54938583	          7.08700750	         23.68359952	        -16.84364364	
         25.47000000	        -36.17913537	         11.96046367	          1.54938583	          7.08700750	         23.68359952	        -16.84364364	
         25.48000000	        -29.75473540	         11.96046367	          1.54938583	          7.08700750	         23.68359952	        -16.84364364	
         25.49000000	        -23.33033544	         11.96046367	          1.54938583	          7.08700750	         23.68359952	        -16.84364364	
         25.50000000	        -16.90593547	         11.96046367	          1.54938583	          7.08700750	         23.68359952	        -16.84364364	
         25.51000000	        -49.02793530	         16.86370047	          1.54938583	          7.08700750	         23.68359952	        -16.84364364	
         25.52000000	        -42.60353533	         16.86370047	          1.54938583	          7.08700750	         23.68359952	        -16.84364364	
         25.53000000	        -36.17913537	         16.86370047	          1.54938583	          7.08700750	         23.68359952	        -16.84364364	
         25.54000000	        -29.75473540	         16.86370047	          1.54938583	          7.08700750	         23.68359952	        -16.84364364	
         25.55000000	        -23.33033544	         16.86370047	          1.54938583	          7.08700750	         23.68359952	        -16.84364364	
         25.56000000	        -16.90593547	         16.86370047	          1.54938583	          7.08700750	         23.68359952	        -16.84364364	
         25.57000000	        -49.02793530	         -7.65248351	         11.28790885	          7.08700750	         23.68359952	        -16.84364364	
         25.58000000	        -42.60353533	         -7.65248351	         11.28790885	          7.08700750	         23.68359952	        -16.84364364	
         25.59000000	        -36.17913537	         -7.65248351	         11.28790885	          7.08700750	         23.68359952	        -16.84364364	
         25.60000000	        -29.75473540	         -7.65248351	         11.28790885	          7.08700750	         23.68359952	        -16.84364364	
         25.61000000	        -23.33033544	         -7.65248351	         11.28790885	          7.08700750	         23.68359952	        -16.84364364	
         25.62000000	        -16.90593547	         -7.65248351	         11.28790885	          7.08700750	         23.68359952	        -16.84364364	
         25.63000000	        -49.02793530	         -2.74924671	         11.28790885	          7.08700750	         23.68359952	        -16.84364364	
         25.64000000	        -42.60353533	         -2.74924671	         11.28790885	          7.08700750	         23.68359952	        -16.84364364	
         25.65000000	        -36.17913537	         -2.74924671	         11.28790885	          7.08700750	         23.68359952	        -16.84364364	
         25.66000000	        -29.75473540	         -2.74924671	         11.28790885	          7.08700750	         23.68359952	        -16.84364364	
         25.67000000	        -23.33033544	         -2.74924671	         11.28790885	          7.08700750	         23.68359952	        -16.84364364	
         25.68000000	        -16.90593547	         -2.74924671	         11.28790885	          7.08700750	         23.68359952	        -16.84364364	
         25.69000000	        -49.02793530	          2.15399008	         11.28790885	          7.08700750	         23.68359952	        -16.84364364	
         25.70000000	        -42.60353533	          2.15399008	         11.28790885	          7.08700750	         23.68359952	        -16.84364364	
         25.71000000	        -36.17913537	          2.15399008	         11.28790885	          7.08700750	         23.68359952	        -16.84364364	
         25.72000000	        -29.75473540	          2.15399008	         11.28790885	          7.08700750	         23.68359952	        -16.84364364	
         25.73000000	        -23.33033544	          2.15399008	         11.28790885	          7.08700750	         23.68359952	        -16.84364364	
         25.74000000	        -16.90593547	          2.15399008	         11.28790885	          7.08700750	         23.68359952	        -16.84364364	
